<svg width="23" height="18" viewBox="0 0 23 18" fill="none" xmlns="http://www.w3.org/2000/svg">
<path fill-rule="evenodd" clip-rule="evenodd" d="M1.96854 4.6661L11.4833 8.27267L20.9975 4.6661L11.4833 1.05952L1.96854 4.6661ZM11.4833 9.3322C11.4191 9.3322 11.3549 9.32095 11.2943 9.29794L0.333253 5.14319C0.132299 5.06649 0.000244141 4.87729 0.000244141 4.6661C0.000244141 4.45491 0.132299 4.26571 0.333253 4.18901L11.2943 0.0342606C11.416 -0.0112498 11.5501 -0.0112498 11.6717 0.0342606L22.6328 4.18901C22.8338 4.26571 22.9664 4.45491 22.9664 4.6661C22.9664 4.87729 22.8338 5.06649 22.6328 5.14319L11.6717 9.29794C11.6112 9.32095 11.547 9.3322 11.4833 9.3322Z" fill="#007AFF"/>
<path fill-rule="evenodd" clip-rule="evenodd" d="M11.4831 13.8065C11.4194 13.8065 11.3552 13.7953 11.2946 13.7723L0.333531 9.61753C0.132577 9.54083 0 9.35163 0 9.14044C0 8.92925 0.132577 8.74005 0.333531 8.66335L5.81408 6.58623C6.08289 6.48447 6.3851 6.61486 6.48949 6.87821C6.59336 7.14207 6.45974 7.43814 6.19093 7.5399L1.9683 9.14044L11.4831 12.747L20.9978 9.14044L16.7752 7.5399C16.5064 7.43814 16.3727 7.14207 16.4766 6.87821C16.581 6.61538 16.8822 6.48498 17.152 6.58623L22.6326 8.66335C22.8335 8.74005 22.9661 8.92925 22.9661 9.14044C22.9661 9.35163 22.8335 9.54083 22.6326 9.61753L11.6715 13.7723C11.6109 13.7953 11.5467 13.8065 11.4831 13.8065Z" fill="#007AFF"/>
<path fill-rule="evenodd" clip-rule="evenodd" d="M11.4831 17.8974C11.4194 17.8974 11.3552 17.8861 11.2946 17.8631L0.333531 13.7084C0.132577 13.6317 0 13.4425 0 13.2313C0 13.0201 0.132577 12.8309 0.333531 12.7542L5.5531 10.7727C5.82243 10.6704 6.12412 10.8013 6.22851 11.0652C6.33238 11.328 6.19876 11.6241 5.92995 11.7269L1.96778 13.2308L11.4831 16.8378L20.9983 13.2308L17.0362 11.7269C16.7673 11.6241 16.6337 11.328 16.7376 11.0652C16.842 10.8013 17.1442 10.6709 17.413 10.7727L22.6326 12.7542C22.8335 12.8309 22.9661 13.0201 22.9661 13.2313C22.9661 13.4425 22.8335 13.6317 22.6326 13.7084L11.6715 17.8631C11.6109 17.8861 11.5467 17.8974 11.4831 17.8974Z" fill="#007AFF"/>
</svg>
